<?xml version="1.0" encoding="UTF-8" standalone="no"?>
<svg width="490px" height="735px" viewBox="0 0 490 735" version="1.1" xmlns="http://www.w3.org/2000/svg" xmlns:xlink="http://www.w3.org/1999/xlink" xmlns:sketch="http://www.bohemiancoding.com/sketch/ns">
    <!-- Generator: Sketch 3.3.1 (12005) - http://www.bohemiancoding.com/sketch -->
    <title>Slice 1</title>
    <desc>Created with Sketch.</desc>
    <defs></defs>
    <g id="Page-1" stroke="none" stroke-width="1" fill="none" fill-rule="evenodd" sketch:type="MSPage">
        <g id="cat" sketch:type="MSLayerGroup">
            <g id="Group" sketch:type="MSShapeGroup">
                <path d="M32.7535678,694.961015 L20.9622834,694.961015 C20.9622834,694.961015 -5.24057085,690.121138 7.86085627,714.760513 C7.86085627,714.760513 8.73428474,715.200502 10.0444275,715.640491 L11.7912844,720.920357 L12.6647129,715.640491 C13.1014271,715.640491 13.9748556,715.200502 14.4115698,714.760513 C14.4115698,714.760513 15.7217125,716.08048 17.4685695,716.08048 L18.7787122,720.480368 L19.6521407,715.640491 C20.5255691,715.200502 21.3989976,714.760513 22.2724261,713.880535 C22.2724261,713.880535 23.1458546,714.760513 24.8927115,715.200502 L26.2028542,720.040379 L27.0762827,715.200502 C27.9497112,714.760513 28.8231397,714.320524 29.6965681,713.880535 L38.8675671,713.440547 C38.8675671,713.880535 41.4878525,699.800892 32.7535678,694.961015 L32.7535678,694.961015 Z" id="Shape" fill="#000000"></path>
                <g transform="translate(26.202854, 0.000000)" id="Shape">
                    <path d="M3.4937139,697.600948 C3.4937139,697.600948 197.831549,646.122253 226.217975,564.724317 C254.6044,483.32638 243.686544,294.571166 381.688243,287.091355 C519.689942,279.611545 382.998386,699.800892 382.998386,699.800892 L366.403245,699.800892 C366.403245,699.800892 416.625382,449.00725 381.251529,456.92705 C327.098964,453.407139 283.42754,642.162354 8.73428474,708.600669 L3.4937139,697.600948 L3.4937139,697.600948 Z" fill="#000000"></path>
                    <path d="M378.194529,697.600948 L363.346245,697.600948 C363.346245,697.600948 330.155963,691.441104 346.31439,723.120301 C346.31439,723.120301 347.624533,724.000279 348.934676,724.000279 L351.118247,730.600112 L351.991675,724.000279 C352.865104,724.000279 353.738532,723.56029 354.611961,723.120301 C354.611961,723.120301 356.358818,724.880257 358.542389,724.880257 L360.289246,730.600112 L361.162674,724.880257 C362.036103,724.440268 363.346245,724.000279 364.656388,722.680312 C364.656388,722.680312 365.966531,724.000279 367.713388,724.440268 L369.460245,730.600112 L370.333673,724.000279 C371.207102,723.56029 372.517244,723.120301 373.827387,722.240323 L385.618671,721.800335 C386.055386,721.800335 389.5491,703.320803 378.194529,697.600948 L378.194529,697.600948 Z" fill="#000000"></path>
                    <g transform="translate(13.101427, 457.807027)">
                        <g transform="translate(0.000000, 0.000000)">
                            <path d="M250.673972,108.237256 L244.559973,100.757446 L246.30683,100.317457 L244.996687,94.1576129 C244.996687,94.1576129 251.547401,96.797546 244.123259,91.077691 C236.699117,85.357836 221.414118,59.3984941 221.414118,59.3984941 C232.331974,26.3993307 193.464407,3.07992192 193.464407,3.07992192 L173.375552,51.4786949 C169.445124,49.7187395 159.837411,50.1587284 150.229698,52.7986615 C140.621984,54.9986057 131.450985,58.5185165 128.8307,62.0384272 L89.9631329,27.7192973 C89.9631329,27.7192973 65.5071356,65.9983268 89.5264186,91.077691 C89.5264186,91.077691 86.9061332,120.996933 82.9757051,129.796709 C78.6085627,138.156497 83.8491335,132.876631 83.8491335,132.876631 L85.1592762,139.036475 L86.9061332,138.596486 L84.722562,148.276241 L90.8365613,146.956274 L91.2732756,153.116118 L94.3302752,152.236141 L97.8239891,159.715951 L100.880989,158.835973 L107.431702,164.555828 L111.36213,161.035917 C111.36213,161.035917 135.818128,181.275404 177.742695,171.59565 C219.667261,161.915895 232.768688,132.876631 232.768688,132.876631 L238.009259,134.636587 L241.502973,126.716788 L244.559973,125.83681 L244.559973,117.477022 L247.616972,116.597044 L245.433401,110.877189 L250.673972,108.237256 L250.673972,108.237256 Z" fill="#000000"></path>
                            <path d="M106.12156,105.157334 C106.12156,105.157334 121.406558,95.4775795 138.438413,106.477301 C155.470268,117.917011 150.666412,133.31662 150.666412,133.31662 C150.666412,133.31662 153.723411,137.27652 150.666412,137.27652 C147.609412,137.27652 147.609412,136.396542 147.609412,136.396542 C147.609412,136.396542 100.880989,141.236419 104.374703,109.557223 C104.374703,109.557223 100.00756,107.797267 106.12156,105.157334 L106.12156,105.157334 Z" fill="#FFFFFF"></path>
                            <path d="M212.243119,80.5179587 C212.243119,80.5179587 194.337836,78.3180145 183.856694,95.9175683 C173.812266,113.517122 184.730122,125.396821 184.730122,125.396821 C184.730122,125.396821 183.856694,130.236698 186.476979,128.916732 C189.533979,127.596765 188.66055,126.716788 188.66055,126.716788 C188.66055,126.716788 232.768688,109.997211 215.736833,83.5978806 C215.736833,83.5978806 219.230547,80.0779699 212.243119,80.5179587 L212.243119,80.5179587 Z" fill="#FFFFFF"></path>
                            <path d="M184.293408,148.71623 C184.293408,148.71623 177.742695,153.996096 175.122409,162.355884 C169.445124,155.756051 161.147554,153.996096 161.147554,153.996096 L172.502124,151.356163 L184.293408,148.71623 L184.293408,148.71623 Z" fill="#FFFFFF"></path>
                            <path d="M148.919555,157.516007 C148.919555,157.516007 140.621984,155.316062 128.393986,154.436085 C125.336986,153.996096 121.843272,153.996096 118.349558,153.996096 L106.994988,153.996096 C103.06456,153.996096 99.1341318,154.436085 94.7669895,154.876074 C90.8365613,155.316062 86.469419,155.756051 82.1022766,156.636029 C77.7351342,157.076018 73.8047061,158.395984 69.8742779,159.275962 C65.9438498,160.15594 62.0134217,161.475906 58.0829935,162.355884 C54.1525654,163.235862 50.6588515,164.995817 47.1651376,165.875795 C43.6714237,167.195761 40.6144241,168.515728 37.5574244,169.835694 C34.5004247,171.155661 31.8801393,172.035639 29.6965681,173.355605 C27.5129969,174.675572 25.3294258,175.555549 23.5825688,176.435527 C20.0888549,178.195482 18.341998,179.07546 18.341998,179.07546 C18.341998,179.07546 20.0888549,178.195482 23.5825688,176.435527 C25.3294258,175.555549 27.0762827,174.675572 29.2598539,173.355605 C31.4434251,172.035639 34.0637105,171.155661 37.1207102,169.835694 C40.1777098,168.515728 43.2347095,167.195761 46.7284234,165.875795 C50.2221373,164.555828 53.7158512,163.235862 57.6462793,161.915895 C61.5767074,161.035917 65.5071356,159.715951 69.4375637,158.835973 C73.3679918,157.955996 77.7351342,156.636029 81.6655624,156.19604 C86.0327047,155.316062 89.9631329,154.876074 94.3302752,154.436085 C98.2607034,153.996096 102.627846,153.556107 106.558274,153.556107 C110.488702,153.116118 114.41913,153.556107 117.912844,153.556107 C121.406558,153.556107 124.900272,153.556107 127.957271,153.996096 C140.621984,154.876074 148.919555,157.076018 148.919555,157.076018 L148.919555,157.516007 L148.919555,157.516007 Z" fill="#000000"></path>
                            <path d="M153.286697,164.555828 C153.286697,164.555828 143.24227,164.555828 127.957271,166.315784 C120.533129,167.195761 111.798845,168.955717 102.627846,170.715672 C97.8239891,172.035639 93.0201325,172.915616 88.6529901,174.235583 C83.8491335,175.555549 79.0452769,176.875516 74.2414203,178.635471 C69.4375637,180.395427 64.6337071,182.155382 60.2665647,183.915337 C55.4627081,185.675293 51.0955657,187.875237 47.1651376,190.075181 C42.7979952,191.835137 38.8675671,194.47507 34.937139,196.675014 C33.190282,197.554992 31.0067108,198.874958 29.2598539,199.754936 C27.5129969,201.074902 25.76614,201.95488 24.4559973,202.834858 C21.3989976,205.034802 18.341998,206.794757 15.7217125,208.554713 C13.1014271,210.314668 10.9178559,212.074624 9.17099898,213.39459 C5.67728508,216.034523 3.4937139,217.794479 3.4937139,217.794479 C3.4937139,217.794479 5.67728508,216.034523 9.17099898,213.39459 C10.9178559,212.074624 13.1014271,210.314668 15.2849983,208.554713 C17.9052837,206.794757 20.5255691,205.034802 24.019283,202.834858 C25.76614,201.95488 27.0762827,200.634914 28.8231397,199.314947 C30.5699966,198.434969 32.3168536,197.115003 34.5004247,196.235025 C38.4308529,194.035081 42.361281,191.835137 46.7284234,189.635192 C51.0955657,187.435248 55.4627081,185.235304 59.8298505,183.475349 C64.6337071,181.715393 69.0008495,179.515449 73.8047061,177.755494 C78.6085627,175.995538 83.4124193,174.235583 88.2162759,172.915616 C93.0201325,171.155661 97.8239891,170.275683 102.191131,168.955717 C111.36213,166.755772 120.096415,164.995817 127.957271,164.115839 C143.24227,161.915895 153.286697,161.915895 153.286697,161.915895 L153.286697,164.555828 L153.286697,164.555828 Z" fill="#000000"></path>
                            <path d="M158.527268,170.715672 C158.527268,170.715672 152.849983,171.155661 144.552413,172.915616 C140.621984,173.795594 135.818128,175.115561 130.577557,176.875516 C127.957271,177.755494 125.7737,178.635471 123.153415,179.955438 C120.533129,181.275404 117.912844,182.155382 115.729273,183.915337 C113.108987,185.235304 110.925416,186.995259 108.741845,188.315226 C107.431702,189.195204 106.558274,190.075181 105.248131,190.955159 C104.374703,191.835137 103.06456,192.715114 102.191131,193.595092 C100.00756,195.355047 98.2607034,197.115003 96.5138464,198.874958 C95.6404179,199.754936 94.7669895,200.634914 93.893561,201.514891 C93.0201325,202.394869 92.5834183,203.274847 91.7099898,204.154824 C90.3998471,205.91478 89.0897044,207.234746 88.2162759,208.994702 C87.3428474,210.314668 86.469419,211.634635 86.0327047,212.954601 C84.722562,215.154545 83.8491335,216.474512 83.8491335,216.474512 C83.8491335,216.474512 84.722562,215.154545 86.0327047,212.954601 C86.469419,212.074624 87.3428474,210.754657 88.2162759,208.994702 C89.0897044,207.674735 90.3998471,205.91478 91.7099898,204.154824 C92.146704,203.274847 93.0201325,202.394869 93.893561,201.514891 C94.7669895,200.634914 95.6404179,199.754936 96.5138464,198.874958 C98.2607034,197.115003 100.00756,195.355047 102.191131,193.595092 C103.06456,192.715114 104.374703,191.835137 105.248131,190.955159 C106.12156,190.075181 107.431702,189.195204 108.741845,188.315226 C110.925416,186.55527 113.545702,185.235304 115.729273,183.475349 C117.912844,181.715393 120.533129,180.835416 123.153415,179.515449 C125.7737,178.195482 128.393986,177.315505 130.577557,176.435527 C135.381414,174.675572 140.18527,172.915616 144.552413,172.035639 C152.849983,169.835694 158.527268,169.835694 158.527268,169.835694 L158.527268,170.715672 L158.527268,170.715672 Z" fill="#000000"></path>
                            <path d="M195.647978,145.196319 C195.647978,145.196319 202.198692,139.476464 213.116548,133.31662 C215.736833,131.556665 218.793833,130.236698 222.287547,128.476743 C225.781261,127.156776 228.83826,124.956832 232.768688,123.636866 C236.262402,121.87691 240.19283,120.556944 244.123259,119.236977 C248.053687,117.917011 251.984115,116.597044 255.914543,115.277078 C259.844971,113.957111 264.212113,113.077133 268.142542,112.197156 C272.07297,111.317178 276.440112,110.877189 279.933826,109.997211 C283.864254,109.117234 287.794682,109.117234 291.288396,108.677245 C294.78211,108.237256 298.275824,108.237256 301.332824,108.237256 C304.389823,108.237256 307.446823,107.797267 310.067108,108.237256 L316.617822,108.237256 L322.295107,108.237256 L316.617822,108.237256 L310.067108,108.237256 C307.446823,108.237256 304.389823,108.237256 301.332824,108.677245 C298.275824,108.677245 294.78211,109.117234 291.288396,109.557223 C287.794682,109.997211 283.864254,110.4372 279.933826,110.877189 C276.003398,111.757167 272.07297,112.197156 268.142542,113.077133 C264.212113,113.957111 259.844971,114.837089 255.914543,116.157055 C251.984115,117.477022 248.053687,118.796988 244.123259,120.116955 C240.19283,121.436921 236.262402,123.196877 232.768688,124.956832 C229.274975,126.276799 225.781261,128.476743 222.724261,129.796709 C219.667261,131.556665 216.610262,133.31662 213.989976,134.636587 C203.07212,141.236419 196.958121,146.516286 196.958121,146.516286 L195.647978,145.196319 L195.647978,145.196319 Z" fill="#000000"></path>
                            <path d="M195.211264,153.116118 C195.211264,153.116118 204.382263,148.71623 218.793833,143.876352 C226.217975,141.236419 234.515545,139.036475 243.686544,136.836531 C248.490401,135.956553 253.294258,134.636587 258.098114,134.196598 C262.901971,133.31662 268.142542,132.436642 272.946398,131.996654 C278.186969,131.116676 282.990826,131.116676 288.231397,130.676687 C293.035253,130.236698 298.275824,130.236698 303.079681,130.236698 C307.883537,130.236698 312.25068,130.676687 316.617822,130.676687 C318.801393,130.676687 320.984964,131.116676 323.168536,131.116676 C325.352107,131.556665 327.098964,131.556665 328.845821,131.996654 C332.776249,132.436642 336.269963,132.876631 339.326962,133.31662 C342.383962,133.756609 345.004247,134.636587 347.187819,135.076576 C351.554961,135.956553 354.175246,136.396542 354.175246,136.396542 C354.175246,136.396542 351.554961,135.956553 347.187819,135.076576 C345.004247,134.636587 342.383962,134.196598 339.326962,133.31662 C336.269963,132.876631 332.776249,132.436642 328.845821,131.996654 C327.098964,131.556665 324.915392,131.556665 323.168536,131.116676 C320.984964,131.116676 318.801393,130.676687 317.054536,130.676687 C312.687394,130.676687 308.320251,130.236698 303.516395,130.236698 C298.712538,130.236698 293.908682,130.236698 289.104825,130.676687 C284.300968,131.116676 279.060398,131.116676 274.256541,131.996654 C269.01597,132.436642 264.212113,133.31662 259.408257,134.196598 C254.6044,135.076576 249.800544,136.396542 244.996687,137.27652 C235.825688,139.476464 227.091403,142.116397 220.103976,144.316341 C205.692406,149.156219 196.521407,153.556107 196.521407,153.556107 L195.211264,153.116118 L195.211264,153.116118 Z" fill="#000000"></path>
                            <path d="M193.464407,161.035917 C193.464407,161.035917 198.704978,158.835973 207.002548,157.076018 C211.369691,156.19604 216.173547,155.316062 221.414118,154.876074 C224.034404,154.876074 226.654689,154.436085 229.711689,154.436085 C232.331974,154.436085 235.388974,154.436085 238.009259,154.876074 C241.066259,155.316062 243.686544,155.316062 246.30683,155.756051 C247.616972,156.19604 248.927115,156.19604 250.237258,156.636029 C251.547401,157.076018 252.857543,157.516007 254.167686,157.516007 C256.787971,157.955996 258.971543,159.275962 261.591828,160.15594 C262.901971,160.595929 263.775399,161.035917 265.085542,161.475906 C265.95897,161.915895 267.269113,162.355884 268.142542,162.795873 C269.889399,163.675851 271.636256,164.555828 273.383112,165.435806 C274.693255,166.315784 276.003398,167.195761 277.313541,168.075739 C279.497112,169.395706 280.37054,170.275683 280.37054,170.275683 C280.37054,170.275683 279.060398,169.395706 276.876826,168.075739 C276.003398,167.195761 274.693255,166.755772 272.946398,165.435806 C271.636256,164.555828 269.452684,163.675851 267.705827,162.795873 C266.832399,162.355884 265.95897,161.915895 264.648828,161.475906 C263.775399,161.035917 262.465257,160.595929 261.155114,160.15594 C258.971543,159.275962 256.351257,158.395984 253.730972,157.955996 C252.420829,157.516007 251.110686,157.076018 249.800544,157.076018 C248.490401,156.636029 247.180258,156.636029 245.870116,156.19604 C243.24983,155.756051 240.19283,155.316062 237.572545,155.316062 C234.95226,154.876074 231.89526,155.316062 229.274975,155.316062 C226.654689,155.316062 223.597689,155.756051 220.977404,155.756051 C215.736833,156.19604 210.932977,157.076018 206.565834,158.395984 C198.268264,160.15594 193.027693,162.795873 193.027693,162.795873 L193.464407,161.035917 L193.464407,161.035917 Z" fill="#000000"></path>
                        </g>
                        <path d="M127.083843,101.637423 C127.083843,101.637423 127.520557,102.517401 128.393986,103.397379 C129.267414,104.717345 130.140843,106.037312 131.014271,107.797267 C131.8877,109.557223 132.761128,111.317178 133.197842,113.077133 C133.634557,114.837089 134.071271,116.597044 134.507985,118.796988 C134.507985,119.676966 134.944699,120.556944 134.944699,121.436921 L134.944699,124.076854 L134.944699,126.716788 C134.944699,127.596765 134.507985,128.476743 134.507985,129.356721 C134.507985,131.116676 134.071271,132.436642 134.071271,133.756609 C133.634557,135.076576 133.634557,135.956553 133.634557,135.956553 C133.634557,135.956553 132.761128,135.956553 131.450985,135.516564 C130.140843,135.076576 128.393986,134.636587 126.647129,133.31662 C125.7737,132.876631 124.900272,131.996654 124.026843,131.116676 C123.153415,130.236698 122.716701,129.356721 121.843272,128.036754 C120.969844,126.716788 120.969844,125.83681 120.533129,124.516843 C120.096415,123.196877 119.659701,121.87691 119.659701,120.556944 C119.659701,117.917011 119.659701,115.277078 120.096415,113.077133 C120.533129,110.877189 121.843272,108.677245 122.716701,106.917289 C124.026843,105.157334 125.336986,103.837368 126.210415,102.95739 C126.647129,102.077412 127.083843,101.637423 127.083843,101.637423 L127.083843,101.637423 Z" fill="#000000"></path>
                        <path d="M191.71755,86.6778026 C191.71755,86.6778026 192.590979,86.6778026 193.901121,87.1177914 C195.211264,87.5577803 196.958121,87.9977691 198.704978,88.8777468 C200.451835,89.7577245 202.198692,91.5176799 203.945549,93.2776352 C205.692406,95.0375906 206.565834,97.6775237 207.875977,99.8774679 C208.312691,101.197434 208.749405,102.517401 208.749405,103.837368 C208.749405,105.157334 209.18612,106.477301 209.18612,107.797267 C209.18612,109.117234 208.749405,110.4372 208.749405,111.757167 C208.312691,113.077133 208.312691,113.957111 207.439263,114.837089 C206.12912,116.597044 204.818977,118.356999 203.945549,119.236977 C203.07212,120.116955 202.198692,120.556944 202.198692,120.556944 C202.198692,120.556944 201.761978,119.676966 200.888549,118.796988 C200.015121,117.917011 199.141692,116.157055 198.268264,114.837089 C197.831549,113.957111 197.394835,113.517122 196.958121,112.637144 C196.521407,111.757167 196.084692,111.317178 195.647978,110.4372 C195.211264,109.557223 194.77455,108.677245 194.337836,108.237256 C193.901121,107.357278 193.464407,106.477301 193.464407,105.597323 C192.590979,103.837368 192.590979,102.077412 192.154264,99.8774679 C191.71755,98.1175125 191.71755,95.9175683 191.71755,94.1576129 C191.71755,92.3976576 191.71755,90.6377022 192.154264,89.3177356 C191.71755,87.5577803 191.71755,86.6778026 191.71755,86.6778026 L191.71755,86.6778026 Z" fill="#000000"></path>
                    </g>
                    <path d="M409.949141,303.425495 C477.278208,226.424829 469.975533,109.554838 393.568582,41.7392362 C331.536468,-12.8880631 237.778752,-6.88601922 183.544533,55.1637968 C139.702325,105.443487 144.593395,182.258341 194.689624,226.654888 C235.236556,262.755767 297.162671,258.625902 332.675061,217.599692 C361.636488,184.044328 358.509554,133.188186 325.405352,104.186076 C298.268654,80.3255425 256.911324,82.9393671 233.308335,110.18725 C213.674592,132.503903 216.018293,166.663674 238.340115,186.597281 C256.799297,203.069437 285.107135,201.266442 301.261908,182.36539 C314.772116,167.122292 313.255579,143.524592 297.964954,129.769879 L288.105552,140.820528 C297.370963,149.155247 298.286791,163.405764 290.136371,172.602682 C279.292229,185.288474 260.460794,186.487894 248.157535,175.509012 C231.879006,160.972124 230.176426,136.156785 244.419614,119.967055 C262.670006,98.8986786 294.663524,96.8766563 315.681143,115.356844 C342.62068,138.958196 345.172788,180.465433 321.515908,207.87484 C291.395302,242.6721 238.884032,246.174087 204.479931,215.542488 C160.474164,176.543435 156.177984,109.071413 194.655739,64.9438471 C243.495745,9.06560327 327.919647,3.66107779 383.804317,52.8746909 C454.087164,115.25487 460.805685,222.776219 398.845627,293.636636 L409.949141,303.425495 L409.949141,303.425495 Z" fill="#000000"></path>
                </g>
            </g>
        </g>
    </g>
</svg>